<svg id="Capa_1" data-name="Capa 1" xmlns="http://www.w3.org/2000/svg" xmlns:xlink="http://www.w3.org/1999/xlink" viewBox="0 0 43 51"><defs><style>.cls-1{fill:url(#Degradado_sin_nombre_62);}</style><linearGradient id="Degradado_sin_nombre_62" x1="21.24" y1="48.79" x2="21.24" y2="2.82" gradientUnits="userSpaceOnUse"><stop offset="0" stop-color="#ffc837"/><stop offset="1" stop-color="#ff8008"/></linearGradient></defs><path class="cls-1" d="M32.57,37.23c-.21.05.92,1.26.91,1.44a12.51,12.51,0,0,0-2.6-1.19,3.28,3.28,0,0,0-1.25,0,1.13,1.13,0,0,0-.36,1.33c.33.69,1.79,2.55,1.4,2.41-3.7-1.7-8-5.14-11.14-8a19.21,19.21,0,0,1,1.4,2.59c-.46-.48-2-1.68-2.44-2.08a30.86,30.86,0,0,1-3.23-3.74c-2.18,6.72-4.68,16.11-5.2,18.74-.22,0-.5-3.74-.78-4.39a14.69,14.69,0,0,1-.57-1.93c-.08-.69.14-1.1-.25-1.06-.74.08-1.32.89-2.2,1.72-.16.08-1,1.71-1.48,2.35-.36-.23,0-4.15-.43-4.6s-1,.44-1.41.68a65.77,65.77,0,0,1,1.84-6.82c-.22,0-.63-.4-.76-.41A8,8,0,0,1,5.5,32.42l.69-2.08a18.57,18.57,0,0,0-2.45-.15c.52-.48,1.77-1.44,3.34-2.61a145,145,0,0,1,5.76-14.3c.9-1.95,1.46-3.42,2.28-4.91.24.08.2,2.42.86,3.16.25.3.28.65.51.69a7.47,7.47,0,0,0,1.61-.41c.36-.18,2-1.76,2.32-2s0,1.16.33.86c.19-.13.82-.9,1.82-1.8.75-.67,1.67-2.09,1.75-1.75-.7,2-3.39,7.67-5.2,12.25,1.32-1.24,2.64-2.53,4-3.78l4.19-4.95a9,9,0,0,0,0,1.26c4.26-3.66,10.27-8.67,12.24-9.07-.47.51-3.3,3.35-3.1,3.66s1.35,0,1,.45A18.33,18.33,0,0,0,35.59,9c-.75,1.24-.42,3.05,0,3.22.65.3,2.79-1.26,3-1-4.83,4.28-10.32,9.26-15.11,14.12,4.57,4.9,10.88,11,14.49,13.41C37.85,39.19,33.26,37.11,32.57,37.23Z"/></svg>