<svg id="Capa_1" data-name="Capa 1" xmlns="http://www.w3.org/2000/svg" xmlns:xlink="http://www.w3.org/1999/xlink" viewBox="0 0 46 51"><defs><style>.cls-1{fill:url(#Degradado_sin_nombre_62);}.cls-2{fill:#fff;}</style><linearGradient id="Degradado_sin_nombre_62" x1="23" y1="44" x2="23" y2="6" gradientUnits="userSpaceOnUse"><stop offset="0" stop-color="#ffc837"/><stop offset="1" stop-color="#ff8008"/></linearGradient></defs><rect class="cls-1" x="4" y="6" width="38" height="38" rx="2.82"/><path class="cls-2" d="M31,33.59c-.16,0,.66.91.65,1a9.46,9.46,0,0,0-1.86-.86,2.29,2.29,0,0,0-.9,0,.81.81,0,0,0-.26,1c.24.5,1.28,1.83,1,1.73a36.08,36.08,0,0,1-8-5.71,14.79,14.79,0,0,1,1,1.86c-.34-.35-1.47-1.21-1.76-1.5a22.57,22.57,0,0,1-2.32-2.68C17,33.26,15.22,40,14.85,41.89c-.16,0-.36-2.68-.56-3.15a11,11,0,0,1-.42-1.38c0-.51.11-.8-.17-.77-.53.06-.95.64-1.58,1.23-.12.06-.75,1.23-1.06,1.69-.26-.16,0-3-.31-3.3s-.7.32-1,.49a43.69,43.69,0,0,1,1.32-4.9c-.16,0-.45-.28-.55-.29s.45-.68,1.07-1.37l.49-1.49a13.54,13.54,0,0,0-1.76-.11c.37-.34,1.27-1,2.4-1.87a103.77,103.77,0,0,1,4.13-10.26c.65-1.4,1.05-2.46,1.64-3.52.17,0,.14,1.73.61,2.26.18.22.21.47.37.5a5.38,5.38,0,0,0,1.16-.3c.26-.12,1.44-1.26,1.66-1.44s0,.83.23.62.6-.65,1.31-1.3c.54-.47,1.2-1.49,1.26-1.25-.51,1.43-2.43,5.51-3.74,8.79,1-.89,1.9-1.81,2.88-2.71l3-3.55a7.06,7.06,0,0,0,0,.9C30.27,12.78,34.59,9.19,36,8.9c-.33.37-2.37,2.41-2.22,2.63s1,0,.71.32a12.92,12.92,0,0,0-1.33,1.49c-.53.89-.3,2.19,0,2.32.47.21,2-.91,2.18-.7-3.47,3.08-7.4,6.65-10.84,10.13,3.28,3.52,7.81,7.88,10.4,9.63C34.79,35,31.49,33.51,31,33.59Z"/></svg>