<svg id="Capa_1" data-name="Capa 1" xmlns="http://www.w3.org/2000/svg" xmlns:xlink="http://www.w3.org/1999/xlink" viewBox="0 0 199 94"><defs><style>.cls-1{fill:url(#Degradado_sin_nombre_62);}.cls-2{fill:url(#Degradado_sin_nombre_62-2);}.cls-3{fill:url(#Degradado_sin_nombre_62-3);}.cls-4{fill:url(#Degradado_sin_nombre_62-4);}.cls-5{fill:url(#Degradado_sin_nombre_62-5);}.cls-6{fill:url(#Degradado_sin_nombre_62-6);}</style><linearGradient id="Degradado_sin_nombre_62" x1="23.36" y1="88.87" x2="23.36" y2="42.9" gradientUnits="userSpaceOnUse"><stop offset="0" stop-color="#ffc837"/><stop offset="1" stop-color="#ff8008"/></linearGradient><linearGradient id="Degradado_sin_nombre_62-2" x1="53.67" y1="81.97" x2="53.67" y2="35.54" xlink:href="#Degradado_sin_nombre_62"/><linearGradient id="Degradado_sin_nombre_62-3" x1="83.86" y1="75.22" x2="83.86" y2="29.58" xlink:href="#Degradado_sin_nombre_62"/><linearGradient id="Degradado_sin_nombre_62-4" x1="114.39" y1="68" x2="114.39" y2="22.03" xlink:href="#Degradado_sin_nombre_62"/><linearGradient id="Degradado_sin_nombre_62-5" x1="143.08" y1="60.74" x2="143.08" y2="16.37" xlink:href="#Degradado_sin_nombre_62"/><linearGradient id="Degradado_sin_nombre_62-6" x1="174.47" y1="54.77" x2="174.47" y2="6.44" xlink:href="#Degradado_sin_nombre_62"/></defs><path class="cls-1" d="M34.69,77.31c-.21,0,.92,1.27.91,1.45a12.58,12.58,0,0,0-2.6-1.2,3.29,3.29,0,0,0-1.25,0,1.14,1.14,0,0,0-.36,1.34c.33.68,1.79,2.54,1.4,2.41-3.7-1.71-8-5.15-11.14-8A19.21,19.21,0,0,1,23.05,76c-.46-.48-2-1.68-2.44-2.08a30.86,30.86,0,0,1-3.23-3.74c-2.18,6.72-4.68,16.12-5.2,18.74-.22,0-.49-3.73-.78-4.38a15.16,15.16,0,0,1-.57-1.93c-.08-.7.14-1.11-.25-1.06-.74.08-1.32.88-2.2,1.71-.16.08-1,1.71-1.48,2.35-.36-.23-.05-4.15-.42-4.6s-1,.45-1.41.68A62.76,62.76,0,0,1,6.9,74.82c-.22,0-.62-.4-.76-.41A7.93,7.93,0,0,1,7.63,72.5l.68-2.08a18.48,18.48,0,0,0-2.45-.15c.52-.48,1.77-1.44,3.34-2.6A145.31,145.31,0,0,1,15,53.36c.9-2,1.46-3.42,2.28-4.9.24.07.2,2.41.86,3.16.25.3.28.65.52.68a7,7,0,0,0,1.6-.41,29.57,29.57,0,0,0,2.32-2c.19-.13,0,1.17.33.87.19-.14.82-.91,1.82-1.81.75-.66,1.67-2.08,1.75-1.74-.7,2-3.39,7.67-5.2,12.25,1.32-1.25,2.64-2.53,4-3.79l4.19-4.94a8.88,8.88,0,0,0,0,1.26c4.26-3.67,10.28-8.67,12.24-9.08-.46.51-3.3,3.36-3.1,3.67s1.35,0,1,.44a18.33,18.33,0,0,0-1.85,2.08c-.75,1.24-.42,3,0,3.23.65.3,2.8-1.27,3-1-4.83,4.29-10.32,9.26-15.11,14.12,4.57,4.91,10.89,11,14.49,13.42C40,79.28,35.38,77.2,34.69,77.31Z"/><path class="cls-2" d="M52.12,40.82s0,.08.06.07l1.21-.55a4.68,4.68,0,0,0,1.78-1.25c.55-.53,2.22-3.38,2.76-3.55a30.53,30.53,0,0,0-1.79,5.07c.64-.15,1.24-.24,1.81-.32a22.29,22.29,0,0,1,7.5-.07c1.89.24,4.69.94,6.17,2.7a12.43,12.43,0,0,0-2.16-.44,4.91,4.91,0,0,1,.9,2.17c.39,2.28-1,5.56-3.33,8.1a5.61,5.61,0,0,1-.71,1c-1.47,1.82-2.69,4.29-3.29,4.61a5.14,5.14,0,0,0-.21-1.7c-1.28,1-2.61,2.08-4,3C63,63.56,68.59,68.55,72.19,71c-.67.38-4-1.27-5.11-1.42-.11.11-.72.57-.65.87L65,70.13c-.52-.14-1.88-.19-1.91,0-.14.57,2.23,2.89,2.92,3.36,0,.23-2.17-.45-2.46-.56-5-2.13-9.27-5.88-12.61-8.52-1.31.7-2.55,1.35-3.61,1.81C45,73.2,42.83,80.19,42.34,82c-.36.17-.24-2-.27-3.52,0-.81,0-1.42-.25-1.29a17.62,17.62,0,0,1-1.54,1.47c-.24.1.12-2.62-.57-3.45s-.6-.67-1-.8-.43.28-.76.4A13.18,13.18,0,0,0,36.25,77c-.19,0,.27-2.12.33-2.67.34-1.42,1.3-4.64,2.22-7.49a14.52,14.52,0,0,0-1.66.2c-.35-.19,1.59-1.89,1.6-2.2,0-.09-.06-1.24-.85-1.37-1-.13-1.7,0-2.18-.13l-.57-.14c.85-.42,3.43-1.46,5.84-2.46,1.22-3.28,2.53-6.53,3.75-9a91.73,91.73,0,0,0-8.62,3.94c-.19,0,.74-1.06,2.12-2.23.87-.74,2.35-1.7,2.39-2.11S39.89,51,39.36,51c-1.18.1-1.92.58-1.92.4,0-.54,4.83-3.35,5.15-3.91s.6-1.08.48-1.41-4,.25-4.18.33a50.28,50.28,0,0,1,9.84-4l3.35-3.54A7,7,0,0,0,52.12,40.82Zm2.18,7.37c-1.12,2.36-2.38,5.43-3.63,8.76,3.86-2.5,9.41-6.59,10.46-8.44a1.85,1.85,0,0,0,.23-.95c-.23-1-2.21-.66-3.2-.48S55.8,47.72,54.3,48.19Z"/><path class="cls-3" d="M69.18,56.91c2.2-3.68,4.67-7.38,6.91-10.49,1-2.37,2.31-5.54,3.57-7.08a10.3,10.3,0,0,0-.64,3.1l.8-1c3.05-4.06,8.94-10.78,10.76-11.83-1.23,1.49-2,3.83-1.83,4.14s.33.06.56.09c-.13,1.6,1.67,1.23,2.21.84.88-.65,2.67-2.18,2.77-2.16.3.16,0,1.26.46,1s1.86-2.8,2.2-2.7c-.57,2.19-1.06,5.34-1.45,7.76a92.94,92.94,0,0,0-.77,9.31,67.11,67.11,0,0,1,9.52-2.19c-.78.27-1.88,1-2.3,1.07-.25.1-.54.39-.82.54a10.74,10.74,0,0,1-1.62.91,11.17,11.17,0,0,0-2.09,1.07c-2.39,1.84-3,3.07-2.33,3.48.46.26,2.62-.06,3,.3a33.25,33.25,0,0,0-3.46,1.33,8.43,8.43,0,0,0,0,.89c.1,2,.37,9,.71,10.89-.31.61-1.56-3.09-2.14-3.09-.23,0-1,1.71-1.2,2-.36,0-.56-1.48-.85-1.55s-.37-.45-.73-.28-1.18,2.06-1.32,2.27a13.88,13.88,0,0,0-.88,3.56c-.23.19-.26,2.16-.48,2.39a112,112,0,0,1-1.1-13.76,1.6,1.6,0,0,1,0-.44c-3.43,1.23-7,2.59-10.64,4-1.77,3.22-6.11,12-7.05,14-.19-1.43,1.23-5.79.42-5.42.37-1.48.3-2.18.06-2.48-.48-.51-1.44.78-2,1.05a.71.71,0,0,0-.36.18.13.13,0,0,1-.08.06c-.27,0-.21-1.92-.85-1.37a14.67,14.67,0,0,0-2.66,3.43c-.25-2.45,2.14-7.3,3.89-10.56-.36-.23-1.16-.41-1.16-.59.12-.83-2.32-.18-2.61-1.05C64.12,58.43,66.63,57.68,69.18,56.91Zm11.9-4.34c1.77-.67,3.67-1.37,5.62-2a61.64,61.64,0,0,1,.52-7.69C85.74,45.19,83.46,48.72,81.08,52.57Z"/><path class="cls-4" d="M125.72,56.44c-.22.05.91,1.27.91,1.45a12.58,12.58,0,0,0-2.6-1.2,3.28,3.28,0,0,0-1.25,0,1.15,1.15,0,0,0-.37,1.34c.34.68,1.8,2.54,1.41,2.41-3.71-1.71-8-5.15-11.14-8a20.46,20.46,0,0,1,1.4,2.59c-.47-.48-2-1.68-2.45-2.08a31.79,31.79,0,0,1-3.23-3.74C106.23,56,103.73,65.38,103.21,68c-.22,0-.5-3.73-.78-4.38a15.22,15.22,0,0,1-.58-1.93c-.07-.7.15-1.11-.24-1.06-.74.08-1.32.88-2.21,1.71-.16.08-1,1.71-1.47,2.35-.37-.23-.06-4.15-.43-4.6s-1,.45-1.41.68A63.3,63.3,0,0,1,97.93,54c-.22,0-.63-.4-.77-.41a8.62,8.62,0,0,1,1.49-1.91l.69-2.08a18.66,18.66,0,0,0-2.45-.15c.51-.48,1.77-1.44,3.34-2.6A142.86,142.86,0,0,1,106,32.49c.9-2,1.45-3.42,2.28-4.9.24.07.19,2.41.86,3.16.24.3.28.65.51.68a7.06,7.06,0,0,0,1.61-.41c.36-.17,2-1.76,2.31-2s0,1.17.34.87c.19-.14.82-.91,1.82-1.81.74-.66,1.67-2.08,1.75-1.74-.71,2-3.39,7.67-5.21,12.25,1.33-1.25,2.65-2.54,4-3.79l4.19-4.94a10.1,10.1,0,0,0,0,1.26c4.27-3.67,10.28-8.67,12.25-9.08-.47.51-3.31,3.36-3.1,3.67s1.34,0,1,.44a19.35,19.35,0,0,0-1.85,2.08c-.74,1.24-.42,3.05,0,3.23.65.3,2.8-1.27,3-1-4.84,4.29-10.32,9.26-15.12,14.12,4.58,4.9,10.89,11,14.5,13.42C131,58.41,126.41,56.33,125.72,56.44Z"/><path class="cls-5" d="M138.9,42.14c-.57,1.79-1.07,3.51-1.53,5,5.89-1.85,12.91-3.86,16.95-4.78a27.56,27.56,0,0,1,2.78-.73,21.55,21.55,0,0,1,3-.46,20.67,20.67,0,0,0-3,1.45,23.32,23.32,0,0,0-2.94,2.6c-.09.2-.09.56-.21.63s2.57-.5,2.72-.22a22.23,22.23,0,0,0-4.2,2.35c0,.4,1.14.68,1.24.75.37.23,1.54,0,1.58.26-4.16,1.54-13.79,4.64-20.22,7.06-.35,2-.9,4.28-.95,4.64-.13-.19-.17-3.09-.67-3.51l-.51-.29c-1.11.44-2.34.94-3.06,1.33a43.47,43.47,0,0,1-4.36,2.07,16.74,16.74,0,0,0,1.82-2,1.21,1.21,0,0,0-.56-1.66,4.78,4.78,0,0,0-2.08-.5c-.72,0-3.51,1.11-3.49,1,0-.55,3.3-2.37,3.66-2.77.87-.87,1.7-1.73,1.77-2.24s-1.63-.25-1.5-.46l2.93-1.3a.24.24,0,0,0,.05-.15l1.38-4.52a8.7,8.7,0,0,0-.13-2.34c-.14-.6-2.21-.48-2.83-.65-.08-.52,5.29-3.27,5.15-3.69-.08-.16-1.22,0-1.11-.15s2-1.93,2.12-2.27l0-.06,1.16-3.13c-1.62.73-3.67,1.56-5,2-.14-.42.46-.73,1.91-2a12,12,0,0,0,1.83-2c.61-.86,1.65-1.59.32-1.73.17-.22,2.76-2.83,2.7-3.44a.74.74,0,0,0-.28-.47,17.81,17.81,0,0,0-4.28,1.07,13.16,13.16,0,0,1,3.23-2.13,62.71,62.71,0,0,1,6.17-2.36A3,3,0,0,0,141.3,21c.09.38.2.67.27,1l1.51-.43a21.22,21.22,0,0,0,3.3-5,18.85,18.85,0,0,1-1,4.26c6.47-1.84,13.46-3.4,16.92-4.1a13.5,13.5,0,0,1,2.74-.36,7.56,7.56,0,0,1-2.11,1.15,17.44,17.44,0,0,0-2.83,1.5c-1,.63-2.3,2.1-1.41,2.07a23.38,23.38,0,0,1,2.57-.32A20.85,20.85,0,0,0,159,22.19c-.75.84-1.35,1.74-1.27,1.9.09.38.45.61.94.77a128.37,128.37,0,0,0-14.83,4.61,42.52,42.52,0,0,0-1.87,4.14c5-1.42,10.61-2.88,14.51-3.86.38-.09.57.14.31.2-.75.44-2.68,1.37-2.94,1.83-.72.93.57,1.3.72,1.36.6-.09-2.81,2.39-3.83,3.79-.34.48,1.62.43,1.87.55C147.31,39,143.07,40.6,138.9,42.14Z"/><path class="cls-6" d="M159.49,47.18h0c-.46-.26-.88-.52-1.2-.36-1.34.8-1.8,2.52-2.6,4.09-.15-.28-.07-2.44-.41-2.59-.19-.4-.49-.56-.57-.9.2-1.3.53-2.36.78-3.44.71-2.54,2.45-8.44,4-13a16.73,16.73,0,0,0-.53-5.42,26.92,26.92,0,0,0,1.7,2.16c2.11-5.46,5.11-12.28,6.45-14.06-.06.33-.5,2.53-.26,2.57s-.2,1.88,0,1.88a2.68,2.68,0,0,0,1.38-1,3.53,3.53,0,0,1,1.22-.95.56.56,0,0,0,.73.06c.52-.26,1-1.92,1.47-2.35s.57-1.61,1.11-1.64a22.75,22.75,0,0,0,.44,5.27c.95,3.36,3.45,11.51,4.73,12.43.86-2.3,2-6.73,3.48-10.42.53-1.6,1.34-3.71,2.19-5.65.35-1,1.4-3.28,2.51-5.68-.17.66-.6,3.63.25,4a8.43,8.43,0,0,0,.92-.26,14.78,14.78,0,0,0,2.67-1.82c.2-.14-.54,2.72.26,2.09s4.11-6.09,4-5.8c-.86,2.12-2.07,6-2.93,8.73l-1.69,5.13-.16.67-.21,1a3.71,3.71,0,0,0-.06.5,12.44,12.44,0,0,0,.71,5.44c-.11.11-1.07-1.15-2-2.15-1.74,5.91-3.3,11.77-3.9,14.42a27.27,27.27,0,0,0-.7,3c-.16,1.07-.77,4.83-.83,4.76s-.49-5.26-.62-5.23a4.41,4.41,0,0,0-1.59.45,2.62,2.62,0,0,0-.68,1.14c-.63.19-1.09-.06-1.46.29s.2,1.84-.17,2.59A37.27,37.27,0,0,1,174.19,41c-.55-1-1.09-2.21-1.64-3.43l-1.14-.32a7.57,7.57,0,0,0-.2-2.24,7.81,7.81,0,0,1-.16-1.08,31.73,31.73,0,0,1-1.54-4.39c-1.79,3-6.17,18.6-7.61,25.2-.11-.29-.11-4.59-.21-5.19s-.23-2-.66-2.13a8.9,8.9,0,0,0-.79,2.42A6.31,6.31,0,0,1,159.49,47.18Z"/></svg>